<svg width="80" height="80" viewBox="0 0 80 80" fill="none" xmlns="http://www.w3.org/2000/svg">
<g clip-path="url(#clip0_3201_2)">
<path d="M76 0H4C1.79086 0 0 1.79086 0 4V76C0 78.2091 1.79086 80 4 80H76C78.2091 80 80 78.2091 80 76V4C80 1.79086 78.2091 0 76 0Z" fill="#532A9C"/>
<path fill-rule="evenodd" clip-rule="evenodd" d="M44.4332 15.0118C44.0731 15.0118 43.7366 15.0885 43.4297 15.1889C44.0879 15.6316 44.4479 16.2072 44.6309 16.8654C44.6427 16.9539 44.6693 17.0188 44.6811 17.1103C44.6929 17.2018 44.7106 17.2638 44.7106 17.3465C44.7637 18.4828 44.4155 18.6245 44.1675 19.2945C43.7927 20.1593 43.896 21.089 44.3446 21.8328C44.3857 21.9323 44.4372 22.0273 44.4981 22.1161C44.0082 18.8517 46.7324 18.3588 47.2342 17.3406C47.2725 16.4492 46.5376 15.8559 45.9562 15.4427C45.4013 15.1063 44.8936 15 44.4332 15V15.0118ZM48.5358 15.7497C48.4827 16.0448 48.524 15.9681 48.5063 16.1245L48.4768 16.461L48.3882 16.7709C48.3587 16.8742 48.3233 16.9775 48.2849 17.0808L48.1432 17.376C48.1049 17.4291 48.0783 17.4793 48.0399 17.5294L47.9632 17.6475L47.7684 17.9043C47.6917 17.981 47.6267 18.0725 47.5323 18.1404C47.4378 18.2083 47.3788 18.2939 47.2873 18.3588C47.0158 18.5654 46.7058 18.7189 46.4225 18.9137C46.334 18.9786 46.2454 19.0318 46.1657 19.1085C46.0784 19.1703 45.9964 19.2394 45.9207 19.3151C45.8322 19.3919 45.7673 19.4686 45.6846 19.5601C45.602 19.6516 45.5429 19.7283 45.4898 19.8169L45.3127 20.0884L45.1711 20.3836L45.0678 20.6787L44.9792 21.0034C44.9674 21.0565 44.9674 21.1214 44.9497 21.1716C44.932 21.2218 44.9379 21.2749 44.9202 21.3251L44.9084 21.6498C44.9084 21.7265 44.9084 21.8032 44.9202 21.8859C44.9202 21.9892 44.932 22.0925 44.9585 22.2106C44.9851 22.3286 44.9969 22.4172 45.0235 22.5205L45.1268 22.8304C45.1563 22.8953 45.1917 22.9602 45.2153 23.0075L42.2461 21.8564L40.7497 21.4727L39.9351 21.2779C39.1582 21.123 38.3741 21.0068 37.5857 20.9296C37.5561 20.9296 37.5473 20.9178 37.5207 20.9178L35.2097 20.7997L33.5185 20.8647C32.7304 20.9178 31.9424 21.0181 31.1573 21.148L30.5758 21.2513L29.4129 21.5081L28.8315 21.6616L28.2766 21.9065L27.8516 22.1013C27.822 22.1132 27.7984 22.1132 27.7866 22.1309L27.4265 22.308C27.3882 22.3198 27.3616 22.3375 27.338 22.3463L26.9366 22.5529C26.848 22.5913 26.7595 22.6415 26.6798 22.6828C26.6414 22.7123 26.5913 22.733 26.5617 22.7477L26.2253 22.9425C26.1184 23.0016 26.0149 23.0666 25.9154 23.1373L25.6586 23.3144L25.3752 23.521L25.1568 23.6981C25.1273 23.7099 25.1037 23.7365 25.0801 23.7512L24.8853 23.9195C24.8735 23.949 24.8469 23.9579 24.8322 23.9726L24.596 24.191L24.3393 24.436L24.1208 24.6721C24.0913 24.7016 24.0559 24.7252 24.0323 24.7489C23.963 24.8298 23.8901 24.9075 23.8139 24.982C23.8021 25.0115 23.7755 25.0204 23.7608 25.047L23.4656 25.3569L22.769 26.0269C22.5329 26.2335 22.2909 26.4283 22.0459 26.5936L21.2726 27.0835C21.0158 27.2252 20.7414 27.355 20.458 27.4672C20.1837 27.5839 19.904 27.6873 19.6198 27.7771C19.0767 27.8952 18.5218 28.1136 18.0437 28.152C17.9404 28.152 17.8253 28.1815 17.719 28.1903L17.3943 28.2671L17.0844 28.3851C16.9788 28.427 16.8753 28.4743 16.7745 28.5268C16.686 28.5917 16.5797 28.6449 16.4912 28.7039C16.4026 28.7629 16.3141 28.8456 16.2344 28.9223C16.1547 28.999 16.0573 29.0758 15.9776 29.1584L15.7592 29.4152C15.6943 29.5185 15.6175 29.61 15.5644 29.7104C15.4968 29.805 15.4367 29.9046 15.3844 30.0085L15.2427 30.3449L15.1246 30.6814L15.0597 30.9913C15.0213 31.1448 15.0213 31.3012 15.0066 31.375C14.9918 31.4488 15.0066 31.5462 15.0066 31.6377C15.0041 31.694 15.008 31.7505 15.0184 31.8059C15.0302 31.8945 15.0479 31.9742 15.0715 32.0509L15.16 32.287C15.1984 32.3756 15.2486 32.4553 15.3017 32.532L15.4699 32.7681L15.6884 32.9747C15.764 33.0504 15.846 33.1195 15.9333 33.1813C16.2432 33.4529 16.317 33.5414 16.7214 33.748C16.7863 33.7864 16.8513 33.813 16.928 33.8513C16.9664 33.8897 16.9664 33.9015 16.9811 33.9281C16.9929 34.0314 17.0195 34.1347 17.0461 34.238C17.0707 34.3443 17.1053 34.4481 17.1494 34.5479L17.2527 34.784C17.2645 34.8135 17.2822 34.8371 17.291 34.849L17.4445 35.1323L17.6393 35.4038L17.8577 35.6488C17.9345 35.7256 18.0112 35.7905 18.1027 35.8672L18.3595 36.062C18.448 36.127 18.5366 36.1801 18.6428 36.2303C18.7383 36.2853 18.838 36.3326 18.9409 36.3719C19.0177 36.4103 19.1092 36.4369 19.1977 36.4605C19.2863 36.4841 19.3659 36.5136 19.4161 36.5254C19.3778 37.222 19.363 37.8831 19.4693 38.1133C19.5873 38.3701 20.154 37.5821 20.7207 36.6818C20.644 37.5732 20.5908 38.618 20.7207 38.925C20.8506 39.232 21.6357 38.2402 22.3086 37.1305C31.4583 35.0142 39.8111 41.3393 40.6877 50.2706C40.5195 48.8775 38.8046 48.1013 38.0166 48.2931C37.6329 49.2494 36.9717 50.4772 35.9122 51.2358C36.0007 50.3798 35.9623 49.5062 35.7823 48.6532C35.4935 49.8414 34.9475 50.9517 34.1826 51.9058C32.9577 51.9943 31.7328 51.404 31.0835 50.5126C31.0303 50.4743 31.0185 50.3946 30.9802 50.3444L30.8769 50.0729C30.8385 49.9843 30.8119 49.8958 30.8001 49.8013C30.7883 49.7069 30.7883 49.6242 30.7883 49.518V49.3232C30.8001 49.2346 30.8267 49.1461 30.8533 49.0516L30.9418 48.7801C30.9949 48.6916 31.0303 48.603 31.0953 48.5086C31.3137 47.9183 31.3137 47.387 30.9182 47.0918C30.8414 47.0387 30.7647 47.0033 30.6732 46.962C30.6201 46.9502 30.5551 46.9236 30.505 46.9088L30.4017 46.8705L30.1301 46.8055C30.0419 46.78 29.9505 46.7671 29.8586 46.7672C29.7649 46.7519 29.6702 46.743 29.5752 46.7406C29.5103 46.7406 29.4454 46.7524 29.3804 46.7524C29.2846 46.7516 29.1892 46.7645 29.0971 46.7908L28.8256 46.841L28.554 46.9295L28.2972 47.0476L28.0523 47.1774C25.0417 49.1402 26.8421 53.7298 28.8905 55.0639C28.1172 55.2056 27.3262 55.3738 27.1107 55.542C27.642 55.9021 28.2205 56.1914 28.8285 56.4334L30.9182 57.0237C31.9896 57.2598 33.0728 57.3336 34.1708 57.2687C36.9598 57.0644 39.5955 55.9143 41.6419 54.0084C43.6884 52.1026 45.023 49.5553 45.4249 46.7878L45.5016 47.1243L45.6197 47.8474L45.6728 48.1957L45.7023 48.5794L45.7318 49.0044V49.211C45.7318 49.276 45.7437 49.3527 45.7437 49.4176C45.7437 49.4826 45.7318 49.5711 45.7318 49.6538V49.8308C45.7318 49.9194 45.72 49.9991 45.72 50.0876C45.72 50.1378 45.72 50.1909 45.7082 50.2559L45.6964 50.5392C45.6846 50.5776 45.6846 50.616 45.6846 50.6573L45.6463 50.9524C45.6463 50.9908 45.6463 51.0292 45.6344 51.0705L45.5843 51.4453V51.4748L45.5075 51.8349L45.4308 52.2186L45.3275 52.62L45.2242 53.0214L45.0943 53.4347L44.811 54.1843L44.6575 54.5592L44.4804 54.9193C44.4686 54.9576 44.4509 54.9842 44.442 55.0078C43.5772 56.7374 42.3376 58.225 40.7881 59.382C40.6848 59.4469 40.5815 59.5236 40.4781 59.6004C40.4486 59.6299 40.4132 59.6387 40.3896 59.6653L40.1063 59.8601L40.1446 59.9368H40.1564L40.6995 59.8601H40.7113L41.7148 59.683C41.8034 59.6712 41.9096 59.6446 41.9982 59.6181L42.1753 59.5797L42.4468 59.5295L42.6829 59.4646C43.9727 59.1547 45.2212 58.7267 46.4255 58.225C44.3742 61.0289 41.6233 63.2839 38.4091 64.7685C39.8937 64.6652 41.3784 64.4202 42.8069 64.007C48.0075 62.4722 52.3846 58.9746 55.0055 54.2611C54.4741 57.2496 53.2888 60.0837 51.5345 62.5607C52.786 61.7343 53.9341 60.781 54.9819 59.6978C57.8708 56.6814 59.767 52.8529 60.4156 48.727C60.8584 50.7635 60.9823 52.8709 60.7905 54.9488C70.1084 41.9503 61.5638 28.4737 57.9865 24.926C57.9747 24.8964 57.957 24.8876 57.957 24.861C57.9275 25.0145 57.9187 25.1709 57.9069 25.3244C57.8685 25.6196 57.8301 25.9059 57.777 26.1892C57.7239 26.4725 57.6353 26.7559 57.5586 27.0451C57.4818 27.3344 57.3638 27.6 57.2487 27.8716C57.1336 28.1431 57.0037 28.4028 56.865 28.6596C56.7227 28.9121 56.5681 29.1574 56.4016 29.3945C56.2333 29.6395 56.0533 29.8727 55.8703 30.0911C55.6777 30.3158 55.4748 30.5315 55.2623 30.7375C55.1324 30.8555 55.0173 30.9559 54.8875 31.0622L54.5923 31.3189C54.3618 31.5018 54.1203 31.6703 53.8692 31.8236C53.6227 31.9826 53.3686 32.1294 53.1077 32.2634C52.8361 32.3933 52.5646 32.5084 52.2931 32.6235C52.0182 32.7275 51.7385 32.8181 51.4548 32.895C51.1715 32.9718 50.8734 33.0367 50.59 33.0898C50.3067 33.143 49.9997 33.1666 49.7134 33.1932C49.5068 33.205 49.3002 33.2227 49.1231 33.2227C48.828 33.2227 48.5328 33.1932 48.2465 33.1695C47.9602 33.1459 47.6562 33.1046 47.367 33.0397C47.0741 32.9867 46.7851 32.9137 46.5022 32.8213H46.4904C46.7737 32.7917 47.0571 32.7681 47.3463 32.718C47.6356 32.6678 47.9278 32.5999 48.2111 32.5232C48.4945 32.4464 48.7778 32.3549 49.0494 32.2516C49.3209 32.1483 49.6042 32.0155 49.864 31.8915C50.1285 31.7625 50.3866 31.6207 50.6373 31.4665C50.8822 31.2983 51.1272 31.13 51.3604 30.95C51.5916 30.77 51.8115 30.5758 52.0186 30.3685C52.237 30.1737 52.4318 29.9553 52.6266 29.7369C52.8214 29.5185 53.0014 29.2735 53.1697 29.0404C53.1992 29.002 53.2228 28.9518 53.2464 28.9105L53.6213 28.3202C53.7629 28.0634 53.8928 27.8037 54.0049 27.5321C54.1171 27.2606 54.2234 26.9891 54.3149 26.7057C54.4064 26.4224 54.4683 26.1508 54.5333 25.8675C54.5982 25.5841 54.6366 25.286 54.6631 25.0027C54.6897 24.7193 54.7133 24.4124 54.7133 24.1261C54.7133 23.9195 54.7015 23.7129 54.6838 23.5358C54.6543 23.2406 54.6189 22.9543 54.5805 22.671C54.5291 22.3798 54.4641 22.0913 54.3857 21.8062C54.2971 21.5347 54.2086 21.2513 54.1023 20.9798C53.9961 20.7082 53.8662 20.4367 53.7423 20.1829C53.6183 19.929 53.4589 19.6663 53.2995 19.4214C53.1402 19.1764 52.9631 18.9432 52.783 18.713L52.1927 18.0548C52.0837 17.9444 51.9715 17.8371 51.8562 17.7331C51.2779 17.2836 50.6791 16.8611 50.0617 16.4669C49.9732 16.4167 49.8935 16.3784 49.8049 16.337C49.3799 16.0655 48.9785 15.9238 48.5801 15.794L48.5358 15.7497Z" fill="white"/>
</g>
<defs>
<clipPath id="clip0_3201_2">
<rect width="80" height="80" fill="white"/>
</clipPath>
</defs>
</svg>
